<svg width="320" height="49" xmlns="http://www.w3.org/2000/svg" xmlns:xlink="http://www.w3.org/1999/xlink"><defs><path id="a" d="M0 0h18.602v31.003H0z"/><path id="c" d="M0 0h18.602v23.031H0z"/><path id="e" d="M0 0h18.602v31.003H0z"/><path id="g" d="M0 0h56v48.825H0z"/></defs><g fill="none" fill-rule="evenodd"><path d="M217.04 17.043h2.183c1.068 0 1.705-.473 1.705-1.265 0-.791-.637-1.264-1.705-1.264h-2.183v2.53Zm0 9.22h2.981c1.168 0 1.865-.571 1.865-1.528 0-.95-.68-1.495-1.865-1.495h-2.981v3.024Zm4.162 6.527h-11.926V7.988h11.32c4.843 0 8.096 2.76 8.096 6.868a6.599 6.599 0 0 1-2.133 4.89c1.958 1.25 3.09 3.302 3.09 5.714 0 4.247-3.552 7.33-8.447 7.33ZM246.388 32.792h-7.79V23.92l-8.95-15.929h9.038l3.967 7.81 3.968-7.81h8.716l-8.95 15.93zM270.385 32.792h-7.95V15.175h-6.212V7.99h20.373v7.185h-6.211zM299.627 32.792H280.14V7.99h19.158v7.185h-11.17v1.542h9.527v6.855h-9.527v2.036h11.499z" fill="#FFF"/><g transform="translate(301.398 4.444)"><mask id="b" fill="#fff"><use xlink:href="#a"/></mask><path d="M12.25 31.003H7.28v-3.271C2.387 26.854.423 23.087.338 22.919L0 22.253l5.577-3.97.494.737c.014.022 1.565 2.284 3.5 2.284.154 0 .92-.027.92-.566 0-.609-1.122-1.443-3.64-2.707-3.539-1.795-5.407-4.446-5.407-7.669 0-3.41 2.267-6.074 5.837-6.949V0h4.969v3.36c4.213.902 5.92 4.015 5.994 4.155l.358.67-5.584 4.005-.484-.79c-.01-.013-1.081-1.702-2.64-1.702-.12 0-.725.021-.725.437 0 .491.401.92 2.779 2.16 1.546.793 6.268 3.215 6.268 8.02 0 3.532-2.317 6.32-5.966 7.264v3.424Z" fill="#FFF" mask="url(#b)"/></g><g transform="translate(65.778 8.873)"><mask id="d" fill="#fff"><use xlink:href="#c"/></mask><path d="M6.041 13.489v4.77h3.816c1.813 0 2.703-1.118 2.703-2.401 0-1.283-.89-2.37-2.703-2.37H6.041Zm3.021-4.441c1.686 0 2.544-.988 2.544-2.139 0-1.152-.858-2.138-2.544-2.138h-3.02v4.277h3.02ZM10.43 0c4.388 0 7.218 2.434 7.218 5.988 0 2.139-1.081 3.915-2.894 5.033 2.417.955 3.848 2.994 3.848 5.56 0 3.653-3.084 6.45-7.568 6.45H0V0h10.43Z" fill="#2A2A2A" mask="url(#d)"/></g><path d="M109.182 8.873v13.203c0 5.936-4.173 9.828-10.286 9.828-6.112 0-10.088-3.698-10.088-9.634V8.873h6.343v13.138c0 2.627 1.577 4.217 3.943 4.217s3.943-1.59 3.943-4.217V8.873h6.145ZM120.71 14.302v12.173h2.454c3.728 0 6.377-2.533 6.377-6.086 0-3.554-2.65-6.087-6.377-6.087h-2.454Zm-6.214-5.429h8.602c7.391 0 12.657 4.87 12.657 11.417s-5.462 11.614-12.853 11.614h-8.406V8.874ZM160.428 18.064s.13.864.13 1.663c0 6.27-4.35 11.291-11.21 11.291-6.796 0-11.821-4.958-11.821-11.42 0-6.46 5.218-11.61 12.014-11.61 6.217 0 8.859 3.582 8.859 3.582l-4.285 4.286s-1.481-2.27-4.67-2.27c-3.382 0-5.798 2.526-5.798 5.98 0 3.456 2.416 6.015 5.798 6.015 2.544 0 4.251-1.152 4.799-3.2h-5.122v-4.317h11.306ZM164.1 31.018V7.988h17.388v5.428h-11.154v3.29h9.514v5.1h-9.514v3.783h11.483v5.43zM196.876 14.302v17.602h-6.202V14.302h-6.2V8.873h18.602v5.43zM217.04 17.043h2.183c1.068 0 1.705-.473 1.705-1.265 0-.791-.637-1.264-1.705-1.264h-2.183v2.53Zm2.183 1.751h-3.881v-6.032h3.881c2.338 0 3.403 1.564 3.403 3.016 0 1.453-1.065 3.016-3.403 3.016Zm-2.183 7.47h2.981c1.168 0 1.865-.572 1.865-1.529 0-.95-.68-1.495-1.865-1.495h-2.981v3.024Zm2.981 1.75h-4.68v-6.526h4.68c2.461 0 3.563 1.631 3.563 3.247 0 1.58-1.115 3.28-3.563 3.28Zm-9.047 3.024h10.228c3.911 0 6.75-2.346 6.75-5.578 0-2.188-1.21-3.918-3.317-4.747l-1.637-.645 1.504-.926c1.607-.988 2.492-2.51 2.492-4.286 0-3.108-2.511-5.117-6.398-5.117h-9.622v21.3Zm10.228 1.752h-11.926V7.988h11.32c4.843 0 8.096 2.76 8.096 6.868a6.599 6.599 0 0 1-2.133 4.89c1.958 1.25 3.09 3.302 3.09 5.714 0 4.247-3.552 7.33-8.447 7.33ZM240.302 31.038h4.382v-7.59l7.702-13.71h-4.733l-5 9.842-4.999-9.841H232.6l7.702 13.708v7.591Zm6.085 1.752H238.6v-8.874l-8.95-15.928h9.037l3.967 7.81 3.968-7.81h8.716l-8.95 15.929v8.873ZM264.173 31.038h4.473V13.421h6.211V9.739h-16.895v3.682h6.211v17.617Zm6.212 1.752h-7.95V15.172h-6.212V7.988h20.373v7.184h-6.211V32.79ZM281.887 31.038h15.993v-3.682h-11.5v-5.538h9.528v-3.353h-9.527v-5.044h11.17V9.739h-15.664v21.3Zm17.74 1.752h-19.488V7.988h19.159v7.184h-11.17v1.542h9.528v6.855h-9.528v2.036h11.499v7.185Z" fill="#2A2A2A"/><g transform="translate(301.398 4.444)"><mask id="f" fill="#fff"><use xlink:href="#e"/></mask><path d="M9.006 29.273h1.519v-3.107l.705-.131c3.245-.603 5.261-2.795 5.261-5.72 0-2.556-1.694-4.616-5.334-6.483-2.312-1.206-3.713-2.055-3.713-3.697 0-1.255 1.03-2.167 2.45-2.167 1.661 0 2.885 1.045 3.547 1.792l2.855-2.048c-.693-.869-2.264-2.38-5.029-2.77l-.742-.105V1.729h-1.52v3.119l-.717.122c-3.158.538-5.12 2.604-5.12 5.392 0 2.564 1.5 4.624 4.457 6.124 3.044 1.527 4.592 2.604 4.592 4.252 0 1.33-1.113 2.296-2.646 2.296-2.013 0-3.595-1.45-4.384-2.352l-2.915 2.075c.748 1.029 2.596 2.998 5.965 3.366l.769.084v3.066Zm3.244 1.73H7.28v-3.271C2.387 26.854.423 23.086.338 22.919L0 22.253l5.577-3.97.494.737c.014.021 1.565 2.284 3.5 2.284.154 0 .92-.027.92-.566 0-.609-1.122-1.443-3.641-2.707-3.538-1.794-5.406-4.446-5.406-7.669 0-3.41 2.266-6.074 5.837-6.949V0h4.969v3.36c4.213.903 5.92 4.015 5.994 4.155l.358.67-5.584 4.005-.485-.79c-.009-.013-1.08-1.702-2.638-1.702-.122 0-.726.021-.726.437 0 .491.401.92 2.779 2.16 1.546.793 6.268 3.215 6.268 8.02 0 3.532-2.318 6.32-5.966 7.264v3.424Z" fill="#2A2A2A" mask="url(#f)"/></g><g><path d="M3.901 48.77c-1.72 0-3.251-1.136-3.723-2.762-.384-1.322-.145-2.549.71-3.647.647-.832 4.246-3.424 5.196-4.01.224-.139.569-.347.992-.602 1.561-.941 4.174-2.516 5.622-3.556 1.516-1.092 1.765-2.53 1.668-4.639-.104-.497-.275-1-.443-1.474a20.87 20.87 0 0 1-1.14-5.43 21.185 21.185 0 0 1 .765-7.416c.66-2.3 1.664-4.399 2.98-6.237.362-.503.755-.982 1.135-1.444.249-.303.498-.606.737-.915.28-.362.497-.692.667-1.007.756-1.4 1.9-2.295 3.402-2.66.71-.172 1.387-.508 2.043-.832a21.041 21.041 0 0 1 7.76-2.13 21.19 21.19 0 0 1 8.34 1.021c.453.15.892.328 1.316.5.339.136.677.273 1.02.395.638.224 1.325.31 2.06.262 1.31-.083 2.69-.153 4.346-.22.877-.034 1.652.285 2.33.95a26.024 26.024 0 0 1 3.85 4.794c.482.767.59 1.61.324 2.505l-.485 1.642a403.08 403.08 0 0 1-.765 2.575c-.2.664-.235 1.384-.108 2.267l.064.446c.149 1.018.266 1.822.293 3.41.031 1.877-.155 3.4-.71 5.82-.58 2.52-2.128 5.268-2.416 5.667-.495.688-1.005 1.369-1.514 2.048l-.233.311c-.122.163-.246.324-.37.484-.39.5-.756.973-1.022 1.505-.657 1.315-1.775 2.207-3.232 2.58a8.329 8.329 0 0 0-1.791.704 21.934 21.934 0 0 1-3.677 1.497c-1.48.455-2.864.717-4.23.801-.438.028-.914.041-1.457.041-.494 0-.987-.01-1.48-.021l-.284-.007c-.41-.006-.807-.057-1.19-.107l-.318-.04c-.868-.109-1.688-.335-2.48-.554l-.267-.074a21.487 21.487 0 0 1-3.778-1.442c-.655-.32-1.28-.69-1.884-1.049-.217-.128-.368-.24-.514-.35a3.94 3.94 0 0 0-.631-.404l-.107-.066a3.354 3.354 0 0 0-1.986-.66c-.92 0-1.817.394-2.594 1.14-.787.702-1.527 1.458-2.243 2.189-.365.372-.73.745-1.1 1.11-.35.35-.706.697-1.062 1.044-.341.333-.682.666-1.02 1.003-.35.345-.694.69-1.039 1.037-.403.403-.805.807-1.212 1.207-1.167 1.154-2.362 1.976-3.653 2.51a3.82 3.82 0 0 1-1.462.29" fill="#FFF"/><g transform="translate(0 -.056)"><mask id="h" fill="#fff"><use xlink:href="#g"/></mask><path d="m15.942 29.355.015.116c.107 2.206-.1 4.468-2.327 6.072-1.501 1.08-4.148 2.675-5.73 3.628-.417.251-.757.457-.978.593-1.226.757-4.383 3.13-4.775 3.633-.538.69-.676 1.396-.437 2.221.276.949 1.176 1.612 2.19 1.612.295 0 .582-.057.855-.17 1.094-.453 2.122-1.163 3.14-2.17.405-.398.804-.798 1.203-1.199.347-.348.695-.697 1.045-1.043.34-.338.685-.675 1.03-1.01.351-.344.703-.688 1.052-1.036.367-.362.725-.728 1.084-1.094.734-.75 1.494-1.527 2.3-2.243 1.057-1.017 2.336-1.565 3.677-1.565 1.027 0 2.02.321 2.876.93.37.194.608.373.802.517.111.083.217.164.352.243.599.355 1.196.709 1.792 1.001 1.19.58 2.336 1.018 3.5 1.337l.27.074c.771.214 1.5.415 2.248.51l.327.04c.357.046.693.09 1.018.095l.288.006c.482.01.964.021 1.446.021.509 0 .952-.012 1.357-.038 1.24-.077 2.503-.316 3.861-.734a20.35 20.35 0 0 0 3.41-1.387 9.907 9.907 0 0 1 2.132-.834c1.01-.259 1.75-.847 2.2-1.747.335-.673.769-1.231 1.188-1.771.118-.153.237-.305.353-.46l.234-.313a126.65 126.65 0 0 0 1.496-2.025c.15-.213 1.617-2.751 2.155-5.09.53-2.31.7-3.682.67-5.436-.024-1.486-.13-2.208-.275-3.207l-.066-.45c-.158-1.105-.106-2.072.16-2.955.258-.854.51-1.709.762-2.564l.487-1.646c.133-.449.087-.831-.146-1.203a24.416 24.416 0 0 0-3.614-4.501c-.343-.335-.7-.498-1.09-.498l-.061.001a185.64 185.64 0 0 0-4.309.22 6.798 6.798 0 0 1-2.691-.351c-.367-.13-.727-.275-1.087-.42-.42-.17-.817-.33-1.221-.465a19.638 19.638 0 0 0-7.714-.945 19.468 19.468 0 0 0-7.176 1.97c-.734.363-1.493.738-2.374.952-1.059.257-1.835.868-2.374 1.866-.21.391-.475.793-.81 1.226-.249.322-.507.637-.766.952-.38.463-.74.9-1.07 1.362-1.21 1.688-2.134 3.623-2.745 5.748a19.6 19.6 0 0 0-.706 6.862M3.901 48.825c-1.72 0-3.251-1.136-3.723-2.762-.384-1.321-.145-2.548.71-3.647.647-.831 4.246-3.423 5.196-4.01.224-.138.569-.346.992-.601 1.561-.942 4.174-2.516 5.622-3.557 1.516-1.092 1.765-2.53 1.668-4.638-.104-.497-.275-1-.443-1.475a20.87 20.87 0 0 1-1.14-5.429 21.185 21.185 0 0 1 .765-7.417c.66-2.3 1.664-4.398 2.98-6.236.362-.504.755-.982 1.135-1.445.249-.303.498-.605.737-.915.28-.362.497-.691.667-1.007.756-1.4 1.9-2.294 3.402-2.66.71-.172 1.387-.507 2.043-.831a21.041 21.041 0 0 1 7.76-2.13 21.19 21.19 0 0 1 8.34 1.02c.453.151.892.328 1.316.5.339.137.677.274 1.02.395.638.225 1.325.31 2.06.263 1.31-.084 2.69-.154 4.346-.221.877-.033 1.652.286 2.33.95a26.024 26.024 0 0 1 3.85 4.794c.482.767.59 1.61.324 2.506l-.485 1.642a403.08 403.08 0 0 1-.765 2.574c-.2.665-.235 1.385-.108 2.267l.064.447c.149 1.018.266 1.822.293 3.41.031 1.876-.155 3.4-.71 5.82-.58 2.52-2.128 5.268-2.416 5.666-.495.689-1.005 1.37-1.514 2.049l-.233.311c-.122.163-.246.323-.37.484-.39.5-.756.973-1.022 1.505-.657 1.315-1.775 2.207-3.232 2.58a8.329 8.329 0 0 0-1.791.704 21.934 21.934 0 0 1-3.677 1.497c-1.48.454-2.864.716-4.23.8-.438.028-.914.042-1.457.042-.494 0-.987-.011-1.48-.022l-.284-.006c-.41-.007-.807-.058-1.19-.107l-.318-.04c-.868-.11-1.688-.335-2.48-.555l-.267-.073a21.487 21.487 0 0 1-3.778-1.442c-.655-.32-1.28-.691-1.884-1.05-.217-.127-.368-.24-.514-.349a3.94 3.94 0 0 0-.631-.404l-.107-.066a3.354 3.354 0 0 0-1.986-.66c-.92 0-1.817.394-2.594 1.14-.787.701-1.527 1.457-2.243 2.188-.365.373-.73.745-1.1 1.111-.35.35-.706.697-1.062 1.044a209.338 209.338 0 0 0-2.059 2.04c-.403.403-.805.807-1.212 1.207-1.167 1.154-2.362 1.975-3.653 2.51a3.82 3.82 0 0 1-1.462.29" fill="#2A2A2A" mask="url(#h)"/></g><path d="M49.11 21.33c0 8.44-6.843 15.285-15.284 15.285-8.44 0-15.283-6.845-15.283-15.286 0-8.44 6.843-15.282 15.283-15.282 6.428 0 11.929 3.966 14.187 9.586a15.26 15.26 0 0 1 1.097 5.696" fill="#EAEAEA"/><path d="M33.826 6.844c-7.987 0-14.486 6.498-14.486 14.485 0 7.989 6.499 14.488 14.486 14.488 7.988 0 14.486-6.5 14.486-14.488 0-1.863-.35-3.68-1.04-5.4a14.425 14.425 0 0 0-13.446-9.085m0 30.568c-8.867 0-16.081-7.214-16.081-16.083 0-8.867 7.214-16.08 16.081-16.08 6.606 0 12.465 3.959 14.927 10.086a16.03 16.03 0 0 1 1.155 5.994c0 8.869-7.214 16.083-16.082 16.083" fill="#2A2A2A"/><path d="M45.346 24.36c-.767.845-.355 3.008-2.47 3.523-1.694.41-2.64.107-3.75.89-1.258.884-1.823 2.623-4.456 3.412-2.633.793-4.822-.335-6.513-1.324-1.807-1.057-3.767-2.776-4.044-5.335-.213-1.975-1.574-3.689-1.308-5.569.295-2.068 1.97-2.438 3.278-3.882 1.218-1.342.952-3.69 2.12-5.02 2.135-2.424 5.699-1.736 7.953.068 1.284 1.03 2.263 2.347 3.34 3.57.895 1.015 1.96 1.41 3.21 1.84 1.612.559 2.553 1.297 3.052 3.018.244.844 1.984 2.167-.412 4.809" fill="#FFF"/><path d="M31.757 10.289c-1.205 0-2.2.434-2.955 1.293-.448.51-.647 1.3-.857 2.135-.256 1.016-.52 2.066-1.27 2.894-.481.53-1.001.927-1.46 1.277-.852.65-1.468 1.12-1.62 2.182-.125.88.22 1.798.585 2.77.307.817.625 1.662.726 2.6.248 2.29 2.124 3.837 3.654 4.733 1.226.717 2.673 1.482 4.318 1.482.521 0 1.047-.08 1.561-.234 1.542-.462 2.264-1.283 2.963-2.078.378-.43.77-.875 1.264-1.223.866-.61 1.66-.691 2.499-.776.464-.048.945-.097 1.524-.236.895-.218 1.094-.78 1.368-1.756.152-.54.31-1.1.698-1.528 1.528-1.685 1.052-2.51.591-3.306-.143-.249-.279-.484-.355-.744-.386-1.333-1.028-1.96-2.546-2.488-1.159-.398-2.476-.85-3.547-2.066a58.64 58.64 0 0 1-.79-.922c-.793-.937-1.542-1.823-2.452-2.553-1.139-.912-2.597-1.456-3.899-1.456m1.121 22.961c-1.947 0-3.613-.817-5.124-1.7-2.649-1.55-4.182-3.603-4.434-5.938-.08-.738-.349-1.454-.633-2.212-.42-1.116-.854-2.27-.672-3.555.244-1.71 1.3-2.515 2.232-3.226.424-.323.863-.657 1.245-1.08.483-.533.688-1.348.905-2.21.248-.984.503-2 1.207-2.801 1.058-1.2 2.493-1.835 4.153-1.835 1.678 0 3.463.658 4.897 1.807 1.03.827 1.865 1.814 2.672 2.767.254.301.509.602.77.898.736.836 1.615 1.182 2.87 1.613 1.461.507 2.902 1.288 3.558 3.551.022.075.123.25.204.39.53.92 1.519 2.63-.791 5.177-.136.15-.241.525-.343.888-.272.966-.682 2.425-2.528 2.874-.687.166-1.246.223-1.74.273-.732.074-1.216.124-1.74.494-.342.24-.64.58-.986.972-.768.873-1.723 1.96-3.701 2.552-.663.2-1.344.301-2.02.301" fill="#2A2A2A"/><path d="M35.018 23.587c-2.158.793-4.53-.258-5.298-2.349-.771-2.09.355-4.429 2.512-5.224 2.157-.793 4.529.258 5.298 2.35.77 2.091-.355 4.428-2.512 5.223" fill="#FCC51C"/><path d="M33.707 16.548c-.407 0-.81.072-1.2.215a3.413 3.413 0 0 0-1.91 1.723c-.38.79-.426 1.67-.128 2.476.46 1.252 1.695 2.092 3.074 2.092a3.47 3.47 0 0 0 1.2-.216c1.74-.641 2.654-2.524 2.038-4.198-.46-1.252-1.695-2.092-3.074-2.092m-.164 8.101c-2.046 0-3.883-1.26-4.572-3.136a4.734 4.734 0 0 1 .188-3.719 5 5 0 0 1 2.798-2.528 5.053 5.053 0 0 1 1.75-.314c2.045 0 3.882 1.261 4.572 3.138.92 2.498-.42 5.3-2.985 6.246a5.06 5.06 0 0 1-1.751.313M47.398 5.885c-.049.309.184.463.368.654.562.579 1.132 1.155 1.666 1.76.688.78 1.23 1.666 1.749 2.56.137.243.345.353.611.32.268-.032.443-.195.521-.458.114-.381.225-.762.344-1.142a.733.733 0 0 0-.11-.678c-.358-.502-.685-1.03-1.075-1.505-.542-.662-1.127-1.288-1.701-1.92-.153-.17-.36-.223-.599-.2-.395.037-.794.057-1.192.055-.385-.001-.582.169-.582.554M3.588 44.924c.396.546 1.135.59 1.65.177 1.235-.982 1.393-1.364 2.446-2.538.287-.319.575-.638.827-.985.08-.109.08-.317.035-.454-.019-.057-.267-.099-.379-.057-.446.164-.91.313-1.312.562-1.248.768-1.495.873-2.735 1.652-.392.244-.93 1.098-.532 1.643" fill="#2A2A2A"/></g></g></svg>
