<svg xmlns="http://www.w3.org/2000/svg" xmlns:xlink="http://www.w3.org/1999/xlink" width="1050" zoomAndPan="magnify" viewBox="0 0 787.5 382.499989" height="510" preserveAspectRatio="xMidYMid meet" version="1.0"><defs><clipPath id="ef79d6abdb"><path d="M 114.667969 156.632812 L 447.730469 156.632812 L 447.730469 381.941406 L 114.667969 381.941406 Z M 114.667969 156.632812 " clip-rule="nonzero"/></clipPath><clipPath id="997e8b021e"><path d="M 114.667969 100 L 448 100 L 448 374 L 114.667969 374 Z M 114.667969 100 " clip-rule="nonzero"/></clipPath><clipPath id="a40904ceb5"><path d="M 472.191406 238.433594 L 672.675781 238.433594 L 672.675781 316 L 472.191406 316 Z M 472.191406 238.433594 " clip-rule="nonzero"/></clipPath><clipPath id="bc2731e420"><path d="M 283.152344 93.167969 L 495.351562 93.167969 L 495.351562 376.59375 L 283.152344 376.59375 Z M 283.152344 93.167969 " clip-rule="nonzero"/></clipPath><clipPath id="7207362d71"><path d="M 304.125 93.554688 C 304.125 93.554688 433.039062 254.101562 454.96875 328.175781 C 454.96875 328.175781 459.046875 343.453125 461.554688 346.660156 C 464.0625 349.867188 495.351562 363.765625 495.351562 363.765625 L 472.265625 376.59375 C 472.265625 376.59375 449.441406 369.644531 445.519531 362.695312 C 441.597656 355.746094 434.910156 309.773438 399.738281 257.921875 C 364.570312 206.070312 283.152344 96.882812 283.152344 96.882812 C 283.152344 96.882812 288.078125 92.226562 304.125 93.554688 Z M 304.125 93.554688 " clip-rule="nonzero"/></clipPath><clipPath id="29554cc85f"><path d="M 304.125 93.554688 C 304.125 93.554688 433.039062 254.101562 454.96875 328.175781 C 454.96875 328.175781 459.046875 343.453125 461.554688 346.660156 C 464.0625 349.867188 495.351562 363.765625 495.351562 363.765625 L 472.265625 376.59375 C 472.265625 376.59375 449.441406 369.644531 445.519531 362.695312 C 441.597656 355.746094 434.910156 309.773438 399.738281 257.921875 C 364.570312 206.070312 283.152344 96.882812 283.152344 96.882812 C 283.152344 96.882812 288.078125 92.226562 304.125 93.554688 " clip-rule="nonzero"/></clipPath><linearGradient x1="-0.00000110658" gradientTransform="matrix(212.203983, 0, 0, 212.066013, 283.150678, 234.955191)" y1="0" x2="0.999994" gradientUnits="userSpaceOnUse" y2="0" id="92520bf386"><stop stop-opacity="1" stop-color="rgb(62.399292%, 77.598572%, 81.999207%)" offset="0"/><stop stop-opacity="1" stop-color="rgb(62.399292%, 77.598572%, 81.999207%)" offset="0.25"/><stop stop-opacity="1" stop-color="rgb(62.399292%, 77.598572%, 81.999207%)" offset="0.375"/><stop stop-opacity="1" stop-color="rgb(62.393188%, 77.598572%, 81.999207%)" offset="0.40625"/><stop stop-opacity="1" stop-color="rgb(62.191772%, 77.597046%, 81.997681%)" offset="0.414063"/><stop stop-opacity="1" stop-color="rgb(61.801147%, 77.450562%, 81.800842%)" offset="0.421875"/><stop stop-opacity="1" stop-color="rgb(61.410522%, 77.301025%, 81.602478%)" offset="0.429688"/><stop stop-opacity="1" stop-color="rgb(61.019897%, 77.111816%, 81.599426%)" offset="0.4375"/><stop stop-opacity="1" stop-color="rgb(60.803223%, 76.904297%, 81.399536%)" offset="0.441406"/><stop stop-opacity="1" stop-color="rgb(60.783386%, 76.88446%, 81.199646%)" offset="0.445312"/><stop stop-opacity="1" stop-color="rgb(60.588074%, 76.6922%, 81.199646%)" offset="0.453125"/><stop stop-opacity="1" stop-color="rgb(60.197449%, 76.499939%, 81.199646%)" offset="0.460938"/><stop stop-opacity="1" stop-color="rgb(59.806824%, 76.499939%, 81.005859%)" offset="0.46875"/><stop stop-opacity="1" stop-color="rgb(59.416199%, 76.31073%, 80.805969%)" offset="0.476562"/><stop stop-opacity="1" stop-color="rgb(58.999634%, 76.100159%, 80.789185%)" offset="0.480469"/><stop stop-opacity="1" stop-color="rgb(58.779907%, 76.080322%, 80.780029%)" offset="0.484375"/><stop stop-opacity="1" stop-color="rgb(58.589172%, 75.889587%, 80.589294%)" offset="0.5"/><stop stop-opacity="1" stop-color="rgb(58.204651%, 75.698853%, 80.39856%)" offset="0.507813"/><stop stop-opacity="1" stop-color="rgb(57.814026%, 75.508118%, 80.207825%)" offset="0.515625"/><stop stop-opacity="1" stop-color="rgb(57.447815%, 75.297546%, 80.007935%)" offset="0.523438"/><stop stop-opacity="1" stop-color="rgb(57.081604%, 75.088501%, 79.992676%)" offset="0.53125"/><stop stop-opacity="1" stop-color="rgb(56.690979%, 74.899292%, 79.792786%)" offset="0.539062"/><stop stop-opacity="1" stop-color="rgb(56.300354%, 74.899292%, 79.598999%)" offset="0.546875"/><stop stop-opacity="1" stop-color="rgb(56.10199%, 74.707031%, 79.406738%)" offset="0.554688"/><stop stop-opacity="1" stop-color="rgb(55.911255%, 74.507141%, 79.206848%)" offset="0.5625"/><stop stop-opacity="1" stop-color="rgb(55.503845%, 74.299622%, 79.191589%)" offset="0.566406"/><stop stop-opacity="1" stop-color="rgb(55.284119%, 74.099731%, 79.18396%)" offset="0.570312"/><stop stop-opacity="1" stop-color="rgb(55.088806%, 74.09668%, 78.991699%)" offset="0.578125"/><stop stop-opacity="1" stop-color="rgb(54.698181%, 73.898315%, 78.799438%)" offset="0.585938"/><stop stop-opacity="1" stop-color="rgb(54.307556%, 73.701477%, 78.799438%)" offset="0.59375"/><stop stop-opacity="1" stop-color="rgb(53.916931%, 73.699951%, 78.610229%)" offset="0.601562"/><stop stop-opacity="1" stop-color="rgb(53.700256%, 73.498535%, 78.410339%)" offset="0.605469"/><stop stop-opacity="1" stop-color="rgb(53.68042%, 73.298645%, 78.399658%)" offset="0.609375"/><stop stop-opacity="1" stop-color="rgb(53.485107%, 73.294067%, 78.395081%)" offset="0.617188"/><stop stop-opacity="1" stop-color="rgb(53.094482%, 73.094177%, 78.19519%)" offset="0.625"/><stop stop-opacity="1" stop-color="rgb(52.703857%, 72.898865%, 77.999878%)" offset="0.632812"/><stop stop-opacity="1" stop-color="rgb(52.360535%, 72.898865%, 77.999878%)" offset="0.640625"/><stop stop-opacity="1" stop-color="rgb(51.99585%, 72.698975%, 77.798462%)" offset="0.644531"/><stop stop-opacity="1" stop-color="rgb(51.777649%, 72.499084%, 77.598572%)" offset="0.648438"/><stop stop-opacity="1" stop-color="rgb(51.58844%, 72.494507%, 77.598572%)" offset="0.65625"/><stop stop-opacity="1" stop-color="rgb(51.397705%, 72.343445%, 77.597046%)" offset="0.664063"/><stop stop-opacity="1" stop-color="rgb(51.200867%, 72.198486%, 77.450562%)" offset="0.671875"/><stop stop-opacity="1" stop-color="rgb(50.810242%, 72.006226%, 77.301025%)" offset="0.679688"/><stop stop-opacity="1" stop-color="rgb(50.419617%, 71.806335%, 77.2995%)" offset="0.6875"/><stop stop-opacity="1" stop-color="rgb(50.003052%, 71.791077%, 77.099609%)" offset="0.691406"/><stop stop-opacity="1" stop-color="rgb(49.783325%, 71.783447%, 76.899719%)" offset="0.695313"/><stop stop-opacity="1" stop-color="rgb(49.588013%, 71.591187%, 76.899719%)" offset="0.703125"/><stop stop-opacity="1" stop-color="rgb(49.197388%, 71.398926%, 76.899719%)" offset="0.710938"/><stop stop-opacity="1" stop-color="rgb(49.000549%, 71.205139%, 76.705933%)" offset="0.71875"/><stop stop-opacity="1" stop-color="rgb(48.809814%, 71.005249%, 76.506042%)" offset="0.726562"/><stop stop-opacity="1" stop-color="rgb(48.400879%, 70.98999%, 76.489258%)" offset="0.730469"/><stop stop-opacity="1" stop-color="rgb(48.181152%, 70.980835%, 76.480103%)" offset="0.734375"/><stop stop-opacity="1" stop-color="rgb(47.98584%, 70.7901%, 76.289368%)" offset="0.742188"/><stop stop-opacity="1" stop-color="rgb(47.645569%, 70.599365%, 76.098633%)" offset="0.75"/><stop stop-opacity="1" stop-color="rgb(47.303772%, 70.404053%, 76.098633%)" offset="0.757812"/><stop stop-opacity="1" stop-color="rgb(46.913147%, 70.204163%, 75.907898%)" offset="0.765625"/><stop stop-opacity="1" stop-color="rgb(46.697998%, 70.188904%, 75.708008%)" offset="0.773438"/><stop stop-opacity="1" stop-color="rgb(46.482849%, 69.989014%, 75.692749%)" offset="0.78125"/><stop stop-opacity="1" stop-color="rgb(46.092224%, 69.798279%, 75.492859%)" offset="0.789063"/><stop stop-opacity="1" stop-color="rgb(45.701599%, 69.60144%, 75.299072%)" offset="0.796875"/><stop stop-opacity="1" stop-color="rgb(45.310974%, 69.40155%, 75.299072%)" offset="0.804688"/><stop stop-opacity="1" stop-color="rgb(44.920349%, 69.210815%, 75.111389%)" offset="0.8125"/><stop stop-opacity="1" stop-color="rgb(44.511414%, 69.010925%, 74.911499%)" offset="0.816406"/><stop stop-opacity="1" stop-color="rgb(44.299316%, 68.998718%, 74.899292%)" offset="0.820313"/><stop stop-opacity="1" stop-color="rgb(44.296265%, 68.995667%, 74.89624%)" offset="0.828125"/><stop stop-opacity="1" stop-color="rgb(44.0979%, 68.797302%, 74.697876%)" offset="0.835938"/><stop stop-opacity="1" stop-color="rgb(43.707275%, 68.600464%, 74.501038%)" offset="0.84375"/><stop stop-opacity="1" stop-color="rgb(43.31665%, 68.409729%, 74.499512%)" offset="0.851562"/><stop stop-opacity="1" stop-color="rgb(42.903137%, 68.209839%, 74.299622%)" offset="0.855469"/><stop stop-opacity="1" stop-color="rgb(42.684937%, 68.199158%, 74.099731%)" offset="0.859375"/><stop stop-opacity="1" stop-color="rgb(42.536926%, 68.19458%, 74.099731%)" offset="0.867188"/><stop stop-opacity="1" stop-color="rgb(42.195129%, 67.99469%, 74.099731%)" offset="0.875"/><stop stop-opacity="1" stop-color="rgb(41.999817%, 67.799377%, 73.904419%)" offset="0.882812"/><stop stop-opacity="1" stop-color="rgb(41.809082%, 67.655945%, 73.704529%)" offset="0.890625"/><stop stop-opacity="1" stop-color="rgb(41.397095%, 67.495728%, 73.687744%)" offset="0.894531"/><stop stop-opacity="1" stop-color="rgb(41.177368%, 67.477417%, 73.677063%)" offset="0.898438"/><stop stop-opacity="1" stop-color="rgb(40.982056%, 67.288208%, 73.487854%)" offset="0.90625"/><stop stop-opacity="1" stop-color="rgb(40.591431%, 67.098999%, 73.298645%)" offset="0.914062"/><stop stop-opacity="1" stop-color="rgb(40.200806%, 67.098999%, 73.298645%)" offset="0.921875"/><stop stop-opacity="1" stop-color="rgb(39.906311%, 67.002869%, 73.202515%)" offset="0.929688"/><stop stop-opacity="1" stop-color="rgb(39.709473%, 66.809082%, 73.010254%)" offset="0.9375"/><stop stop-opacity="1" stop-color="rgb(39.605713%, 66.705322%, 72.904968%)" offset="1"/></linearGradient><clipPath id="f917453946"><path d="M 215 215 L 351.761719 215 L 351.761719 272.753906 L 215 272.753906 Z M 215 215 " clip-rule="nonzero"/></clipPath><clipPath id="2f2009a971"><path d="M 290.492188 272.054688 C 237.667969 275.4375 219.628906 240.9375 219.628906 240.9375 C 215.800781 235.953125 214.644531 231.21875 215.492188 226.800781 C 223.15625 239.355469 238.738281 260.609375 255.265625 258.417969 C 278.582031 255.335938 324.039062 243.550781 335.261719 229.464844 C 340.238281 223.21875 343.671875 218.308594 346.289062 215.203125 C 349.003906 217.742188 350.730469 219.996094 351.234375 221.636719 C 353.5 229.03125 343.316406 268.671875 290.492188 272.054688 Z M 290.492188 272.054688 " clip-rule="nonzero"/></clipPath><clipPath id="edef9c08e3"><path d="M 290.492188 272.054688 C 237.667969 275.4375 219.628906 240.9375 219.628906 240.9375 C 215.800781 235.953125 214.644531 231.21875 215.492188 226.800781 C 223.15625 239.355469 238.738281 260.609375 255.265625 258.417969 C 278.582031 255.335938 324.039062 243.550781 335.261719 229.464844 C 340.238281 223.21875 343.671875 218.308594 346.289062 215.203125 C 349.003906 217.742188 350.730469 219.996094 351.234375 221.636719 C 353.5 229.03125 343.316406 268.671875 290.492188 272.054688 " clip-rule="nonzero"/></clipPath><clipPath id="1bf373e225"><path d="M 346.328125 184.488281 L 201.304688 218.3125 L 221.820312 306.152344 L 366.84375 272.328125 Z M 346.328125 184.488281 " clip-rule="nonzero"/></clipPath><linearGradient x1="0.490584" gradientTransform="matrix(31.18211, 133.519354, -133.606231, 31.161835, 261.948174, 135.150259)" y1="0" x2="1.126143" gradientUnits="userSpaceOnUse" y2="0" id="4b597cfc54"><stop stop-opacity="1" stop-color="rgb(95.698547%, 64.677429%, 39.99939%)" offset="0"/><stop stop-opacity="1" stop-color="rgb(95.698547%, 64.48822%, 39.99939%)" offset="0.015625"/><stop stop-opacity="1" stop-color="rgb(95.597839%, 64.299011%, 39.898682%)" offset="0.0234375"/><stop stop-opacity="1" stop-color="rgb(95.397949%, 64.297485%, 39.697266%)" offset="0.03125"/><stop stop-opacity="1" stop-color="rgb(95.298767%, 64.108276%, 39.408875%)" offset="0.046875"/><stop stop-opacity="1" stop-color="rgb(95.298767%, 63.731384%, 39.208984%)" offset="0.0625"/><stop stop-opacity="1" stop-color="rgb(95.120239%, 63.520813%, 39.021301%)" offset="0.078125"/><stop stop-opacity="1" stop-color="rgb(94.920349%, 63.331604%, 38.652039%)" offset="0.09375"/><stop stop-opacity="1" stop-color="rgb(94.898987%, 63.064575%, 38.363647%)" offset="0.101562"/><stop stop-opacity="1" stop-color="rgb(94.898987%, 62.866211%, 38.165283%)" offset="0.109375"/><stop stop-opacity="1" stop-color="rgb(94.740295%, 62.612915%, 37.87384%)" offset="0.125"/><stop stop-opacity="1" stop-color="rgb(94.540405%, 62.286377%, 37.532043%)" offset="0.15625"/><stop stop-opacity="1" stop-color="rgb(94.361877%, 61.91864%, 37.203979%)" offset="0.171875"/><stop stop-opacity="1" stop-color="rgb(94.161987%, 61.662292%, 36.837769%)" offset="0.1875"/><stop stop-opacity="1" stop-color="rgb(94.099426%, 61.477661%, 36.573792%)" offset="0.203125"/><stop stop-opacity="1" stop-color="rgb(93.984985%, 61.16333%, 36.384583%)" offset="0.21875"/><stop stop-opacity="1" stop-color="rgb(93.785095%, 60.874939%, 36.174011%)" offset="0.226562"/><stop stop-opacity="1" stop-color="rgb(93.699646%, 60.679626%, 35.978699%)" offset="0.234375"/><stop stop-opacity="1" stop-color="rgb(93.699646%, 60.488892%, 35.684204%)" offset="0.25"/><stop stop-opacity="1" stop-color="rgb(93.606567%, 60.305786%, 35.301208%)" offset="0.265625"/><stop stop-opacity="1" stop-color="rgb(93.406677%, 60.018921%, 35.006714%)" offset="0.28125"/><stop stop-opacity="1" stop-color="rgb(93.299866%, 59.724426%, 34.899902%)" offset="0.289062"/><stop stop-opacity="1" stop-color="rgb(93.299866%, 59.527588%, 34.815979%)" offset="0.296875"/><stop stop-opacity="1" stop-color="rgb(93.228149%, 59.315491%, 34.544373%)" offset="0.3125"/><stop stop-opacity="1" stop-color="rgb(93.026733%, 59.135437%, 34.162903%)" offset="0.328125"/><stop stop-opacity="1" stop-color="rgb(92.89856%, 58.970642%, 33.869934%)" offset="0.335938"/><stop stop-opacity="1" stop-color="rgb(92.837524%, 58.772278%, 33.734131%)" offset="0.34375"/><stop stop-opacity="1" stop-color="rgb(92.637634%, 58.537292%, 33.64563%)" offset="0.359375"/><stop stop-opacity="1" stop-color="rgb(92.498779%, 58.399963%, 33.491516%)" offset="0.367188"/><stop stop-opacity="1" stop-color="rgb(92.498779%, 58.348083%, 33.293152%)" offset="0.375"/><stop stop-opacity="1" stop-color="rgb(92.468262%, 58.106995%, 33.007812%)" offset="0.390625"/><stop stop-opacity="1" stop-color="rgb(92.318726%, 57.736206%, 32.637024%)" offset="0.40625"/><stop stop-opacity="1" stop-color="rgb(92.181396%, 57.408142%, 32.307434%)" offset="0.4375"/><stop stop-opacity="1" stop-color="rgb(91.981506%, 57.073975%, 31.973267%)" offset="0.453125"/><stop stop-opacity="1" stop-color="rgb(91.799927%, 56.784058%, 31.68335%)" offset="0.460938"/><stop stop-opacity="1" stop-color="rgb(91.799927%, 56.590271%, 31.481934%)" offset="0.46875"/><stop stop-opacity="1" stop-color="rgb(91.799927%, 56.498718%, 31.193542%)" offset="0.484375"/><stop stop-opacity="1" stop-color="rgb(91.702271%, 56.401062%, 31.002808%)" offset="0.492188"/><stop stop-opacity="1" stop-color="rgb(91.503906%, 56.204224%, 30.999756%)" offset="0.5"/><stop stop-opacity="1" stop-color="rgb(91.400146%, 55.914307%, 30.812073%)" offset="0.515625"/><stop stop-opacity="1" stop-color="rgb(91.398621%, 55.537415%, 30.436707%)" offset="0.53125"/><stop stop-opacity="1" stop-color="rgb(91.323853%, 55.323792%, 30.149841%)" offset="0.539062"/><stop stop-opacity="1" stop-color="rgb(91.149902%, 55.299377%, 29.949951%)" offset="0.546875"/><stop stop-opacity="1" stop-color="rgb(91.023254%, 55.134583%, 29.658508%)" offset="0.5625"/><stop stop-opacity="1" stop-color="rgb(90.99884%, 54.780579%, 29.434204%)" offset="0.578125"/><stop stop-opacity="1" stop-color="rgb(90.846252%, 54.545593%, 29.246521%)" offset="0.59375"/><stop stop-opacity="1" stop-color="rgb(90.646362%, 54.356384%, 28.903198%)" offset="0.609375"/><stop stop-opacity="1" stop-color="rgb(90.59906%, 54.115295%, 28.614807%)" offset="0.617188"/><stop stop-opacity="1" stop-color="rgb(90.59906%, 53.918457%, 28.417969%)" offset="0.625"/><stop stop-opacity="1" stop-color="rgb(90.464783%, 53.625488%, 28.257751%)" offset="0.640625"/><stop stop-opacity="1" stop-color="rgb(90.264893%, 53.366089%, 28.077698%)" offset="0.65625"/><stop stop-opacity="1" stop-color="rgb(90.080261%, 53.181458%, 27.789307%)" offset="0.671875"/><stop stop-opacity="1" stop-color="rgb(89.880371%, 52.92511%, 27.505493%)" offset="0.6875"/><stop stop-opacity="1" stop-color="rgb(89.7995%, 52.642822%, 27.243042%)" offset="0.75"/><stop stop-opacity="1" stop-color="rgb(89.7995%, 52.49939%, 27.099609%)" offset="1"/></linearGradient><clipPath id="fdcd719641"><path d="M 444.4375 108.210938 L 514 108.210938 L 514 179 L 444.4375 179 Z M 444.4375 108.210938 " clip-rule="nonzero"/></clipPath><clipPath id="fe8a107cfe"><path d="M 513.632812 152.113281 C 513.632812 152.113281 507.386719 167.582031 495.355469 173.28125 C 483.320312 178.988281 478.683594 178.804688 478.683594 178.804688 L 463.421875 161.472656 L 444.75 140.261719 L 475.59375 114.835938 L 484.902344 108.265625 L 503.203125 136.195312 Z M 513.632812 152.113281 " clip-rule="nonzero"/></clipPath><clipPath id="fdb39ac4e3"><path d="M 513.632812 152.113281 C 513.632812 152.113281 507.386719 167.582031 495.355469 173.28125 C 483.320312 178.988281 478.683594 178.804688 478.683594 178.804688 L 463.421875 161.472656 L 444.75 140.261719 L 475.59375 114.835938 L 484.902344 108.265625 L 503.203125 136.195312 L 513.632812 152.113281 " clip-rule="nonzero"/></clipPath><clipPath id="780d295de3"><path d="M 444 107.742188 L 485 107.742188 L 485 141.589844 L 444 141.589844 Z M 444 107.742188 " clip-rule="nonzero"/></clipPath><clipPath id="adf4a95ef0"><path d="M 445.519531 133.5625 C 445.519531 133.5625 465.488281 110.964844 480.109375 108.269531 C 494.730469 105.574219 471.625 122.75 467.484375 129.84375 C 463.351562 136.933594 438.03125 149.4375 445.519531 133.5625 Z M 445.519531 133.5625 " clip-rule="nonzero"/></clipPath><clipPath id="9c4e358d9d"><path d="M 445.519531 133.5625 C 445.519531 133.5625 465.488281 110.964844 480.109375 108.269531 C 494.730469 105.574219 471.625 122.75 467.484375 129.84375 C 463.351562 136.933594 438.03125 149.4375 445.519531 133.5625 " clip-rule="nonzero"/></clipPath><clipPath id="3560e2f0f3"><path d="M 488.378906 167.304688 L 508.570312 110.484375 L 444.378906 87.703125 L 424.1875 144.523438 Z M 488.378906 167.304688 " clip-rule="nonzero"/></clipPath><linearGradient x1="0.478363" gradientTransform="matrix(-57.234984, -20.313233, 20.326451, -57.197771, 515.824732, 142.636832)" y1="0" x2="1.307275" gradientUnits="userSpaceOnUse" y2="0" id="a4ccc79c71"><stop stop-opacity="1" stop-color="rgb(59.397888%, 76.098633%, 80.799866%)" offset="0"/><stop stop-opacity="1" stop-color="rgb(59.25293%, 76.052856%, 80.754089%)" offset="0.0078125"/><stop stop-opacity="1" stop-color="rgb(58.964539%, 75.863647%, 80.563354%)" offset="0.015625"/><stop stop-opacity="1" stop-color="rgb(58.674622%, 75.709534%, 80.409241%)" offset="0.0234375"/><stop stop-opacity="1" stop-color="rgb(58.375549%, 75.698853%, 80.39856%)" offset="0.03125"/><stop stop-opacity="1" stop-color="rgb(58.061218%, 75.650024%, 80.351257%)" offset="0.0390625"/><stop stop-opacity="1" stop-color="rgb(57.759094%, 75.457764%, 80.158997%)" offset="0.046875"/><stop stop-opacity="1" stop-color="rgb(57.504272%, 75.306702%, 80.006409%)" offset="0.0546875"/><stop stop-opacity="1" stop-color="rgb(57.264709%, 75.218201%, 79.917908%)" offset="0.0625"/><stop stop-opacity="1" stop-color="rgb(56.991577%, 75.018311%, 79.718018%)" offset="0.0703125"/><stop stop-opacity="1" stop-color="rgb(56.703186%, 74.899292%, 79.598999%)" offset="0.078125"/><stop stop-opacity="1" stop-color="rgb(56.39801%, 74.768066%, 79.598999%)" offset="0.0859375"/><stop stop-opacity="1" stop-color="rgb(56.083679%, 74.568176%, 79.515076%)" offset="0.09375"/><stop stop-opacity="1" stop-color="rgb(55.786133%, 74.47052%, 79.315186%)" offset="0.101562"/><stop stop-opacity="1" stop-color="rgb(55.497742%, 74.298096%, 79.199219%)" offset="0.109375"/><stop stop-opacity="1" stop-color="rgb(55.209351%, 74.125671%, 79.081726%)" offset="0.117187"/><stop stop-opacity="1" stop-color="rgb(54.919434%, 74.03717%, 78.881836%)" offset="0.125"/><stop stop-opacity="1" stop-color="rgb(54.631042%, 73.83728%, 78.799438%)" offset="0.132812"/><stop stop-opacity="1" stop-color="rgb(54.319763%, 73.699951%, 78.799438%)" offset="0.140625"/><stop stop-opacity="1" stop-color="rgb(54.006958%, 73.579407%, 78.678894%)" offset="0.148437"/><stop stop-opacity="1" stop-color="rgb(53.713989%, 73.379517%, 78.479004%)" offset="0.15625"/><stop stop-opacity="1" stop-color="rgb(53.425598%, 73.28949%, 78.399658%)" offset="0.164062"/><stop stop-opacity="1" stop-color="rgb(53.137207%, 73.136902%, 78.399658%)" offset="0.171875"/><stop stop-opacity="1" stop-color="rgb(52.848816%, 72.946167%, 78.302002%)" offset="0.179687"/><stop stop-opacity="1" stop-color="rgb(52.56958%, 72.898865%, 78.102112%)" offset="0.1875"/><stop stop-opacity="1" stop-color="rgb(52.328491%, 72.898865%, 77.999878%)" offset="0.195312"/><stop stop-opacity="1" stop-color="rgb(52.059937%, 72.749329%, 77.850342%)" offset="0.203125"/><stop stop-opacity="1" stop-color="rgb(51.748657%, 72.549438%, 77.648926%)" offset="0.210937"/><stop stop-opacity="1" stop-color="rgb(51.454163%, 72.465515%, 77.598572%)" offset="0.21875"/><stop stop-opacity="1" stop-color="rgb(51.165771%, 72.323608%, 77.598572%)" offset="0.226562"/><stop stop-opacity="1" stop-color="rgb(50.875854%, 72.206116%, 77.497864%)" offset="0.234375"/><stop stop-opacity="1" stop-color="rgb(50.587463%, 72.120667%, 77.348328%)" offset="0.242187"/><stop stop-opacity="1" stop-color="rgb(50.296021%, 71.920776%, 77.2995%)" offset="0.25"/><stop stop-opacity="1" stop-color="rgb(49.972534%, 71.662903%, 77.16217%)" offset="0.265625"/><stop stop-opacity="1" stop-color="rgb(49.717712%, 71.463013%, 76.96228%)" offset="0.273438"/><stop stop-opacity="1" stop-color="rgb(49.493408%, 71.372986%, 76.873779%)" offset="0.28125"/><stop stop-opacity="1" stop-color="rgb(49.205017%, 71.203613%, 76.704407%)" offset="0.289062"/><stop stop-opacity="1" stop-color="rgb(48.9151%, 71.029663%, 76.530457%)" offset="0.296875"/><stop stop-opacity="1" stop-color="rgb(48.61908%, 70.932007%, 76.499939%)" offset="0.304688"/><stop stop-opacity="1" stop-color="rgb(48.304749%, 70.732117%, 76.470947%)" offset="0.3125"/><stop stop-opacity="1" stop-color="rgb(47.999573%, 70.599365%, 76.298523%)" offset="0.320312"/><stop stop-opacity="1" stop-color="rgb(47.738647%, 70.599365%, 76.126099%)" offset="0.328125"/><stop stop-opacity="1" stop-color="rgb(47.50061%, 70.53833%, 76.037598%)" offset="0.335938"/><stop stop-opacity="1" stop-color="rgb(47.232056%, 70.33844%, 75.837708%)" offset="0.34375"/><stop stop-opacity="1" stop-color="rgb(46.943665%, 70.199585%, 75.698853%)" offset="0.351563"/><stop stop-opacity="1" stop-color="rgb(46.655273%, 70.10498%, 75.698853%)" offset="0.359375"/><stop stop-opacity="1" stop-color="rgb(46.360779%, 69.90509%, 75.654602%)" offset="0.367188"/><stop stop-opacity="1" stop-color="rgb(46.046448%, 69.790649%, 75.454712%)" offset="0.375"/><stop stop-opacity="1" stop-color="rgb(45.73822%, 69.638062%, 75.299072%)" offset="0.382812"/><stop stop-opacity="1" stop-color="rgb(45.449829%, 69.445801%, 75.299072%)" offset="0.390625"/><stop stop-opacity="1" stop-color="rgb(45.159912%, 69.3573%, 75.257874%)" offset="0.398437"/><stop stop-opacity="1" stop-color="rgb(44.871521%, 69.171143%, 75.071716%)" offset="0.40625"/><stop stop-opacity="1" stop-color="rgb(44.58313%, 69.012451%, 74.913025%)" offset="0.414062"/><stop stop-opacity="1" stop-color="rgb(44.284058%, 68.913269%, 74.813843%)" offset="0.421875"/><stop stop-opacity="1" stop-color="rgb(43.969727%, 68.713379%, 74.613953%)" offset="0.429687"/><stop stop-opacity="1" stop-color="rgb(43.666077%, 68.598938%, 74.499512%)" offset="0.4375"/><stop stop-opacity="1" stop-color="rgb(43.377686%, 68.466187%, 74.499512%)" offset="0.445312"/><stop stop-opacity="1" stop-color="rgb(43.089294%, 68.266296%, 74.421692%)" offset="0.453125"/><stop stop-opacity="1" stop-color="rgb(42.805481%, 68.199158%, 74.221802%)" offset="0.460938"/><stop stop-opacity="1" stop-color="rgb(42.558289%, 68.199158%, 74.099731%)" offset="0.46875"/><stop stop-opacity="1" stop-color="rgb(42.297363%, 68.07251%, 73.973083%)" offset="0.476562"/><stop stop-opacity="1" stop-color="rgb(41.992188%, 67.87262%, 73.773193%)" offset="0.484375"/><stop stop-opacity="1" stop-color="rgb(41.694641%, 67.781067%, 73.699951%)" offset="0.492188"/><stop stop-opacity="1" stop-color="rgb(41.40625%, 67.654419%, 73.699951%)" offset="0.5"/><stop stop-opacity="1" stop-color="rgb(41.116333%, 67.521667%, 73.58551%)" offset="0.507812"/><stop stop-opacity="1" stop-color="rgb(40.827942%, 67.440796%, 73.38562%)" offset="0.515625"/><stop stop-opacity="1" stop-color="rgb(40.541077%, 67.240906%, 73.298645%)" offset="0.53125"/><stop stop-opacity="1" stop-color="rgb(40.29541%, 66.995239%, 73.194885%)" offset="0.539062"/><stop stop-opacity="1" stop-color="rgb(40.034485%, 66.795349%, 72.994995%)" offset="0.546875"/><stop stop-opacity="1" stop-color="rgb(39.738464%, 66.699219%, 72.898865%)" offset="0.5625"/><stop stop-opacity="1" stop-color="rgb(39.599609%, 66.699219%, 72.898865%)" offset="0.625"/><stop stop-opacity="1" stop-color="rgb(39.599609%, 66.699219%, 72.898865%)" offset="0.75"/><stop stop-opacity="1" stop-color="rgb(39.599609%, 66.699219%, 72.898865%)" offset="1"/></linearGradient></defs><path fill="#ff685f" d="M 663.050781 246.339844 L 670.539062 238.855469 L 521.832031 38.21875 L 320.171875 100.679688 L 450.691406 319.390625 L 475.59375 310.605469 L 663.050781 246.339844 " fill-opacity="1" fill-rule="nonzero"/><g clip-path="url(#ef79d6abdb)"><path fill="#e83e21" d="M 114.667969 156.664062 L 114.667969 171.324219 L 218.003906 381.941406 L 447.515625 322.605469 L 447.515625 314.996094 L 114.667969 156.664062 " fill-opacity="1" fill-rule="nonzero"/></g><g clip-path="url(#997e8b021e)"><path fill="#ff685f" d="M 219.53125 373.761719 L 447.515625 314.996094 L 317.953125 100.679688 L 114.667969 156.664062 L 219.53125 373.761719 " fill-opacity="1" fill-rule="nonzero"/></g><path fill="#f29e5f" d="M 143.117188 141.921875 L 124.929688 145.132812 L 128.140625 164.375 L 229.773438 360.558594 L 232.980469 328.175781 L 143.117188 141.921875 " fill-opacity="1" fill-rule="nonzero"/><path fill="#e83e21" d="M 447.515625 320.824219 L 447.515625 322.605469 C 447.515625 322.605469 452.769531 330.085938 464.183594 327.710938 C 475.59375 325.335938 475.59375 310.605469 475.59375 310.605469 L 447.515625 314.996094 L 447.515625 320.824219 " fill-opacity="1" fill-rule="nonzero"/><path fill="#ffd9b4" d="M 225.492188 331.691406 L 229.773438 360.558594 C 229.773438 360.558594 442.429688 315.792969 447.515625 314.996094 C 452.601562 314.199219 452.601562 314.199219 452.601562 314.199219 C 452.601562 314.199219 452.292969 298.964844 475.59375 310.605469 L 665.542969 227.453125 L 661.265625 199.300781 L 467.984375 300.867188 C 467.984375 300.867188 464.417969 301.488281 460.71875 302.378906 C 456.105469 303.492188 453.003906 305.328125 452.652344 305.496094 C 438.023438 312.652344 347.691406 291.125 347.691406 291.125 C 322.691406 285.167969 283.765625 287.902344 225.492188 331.691406 " fill-opacity="1" fill-rule="nonzero"/><g clip-path="url(#a40904ceb5)"><path fill="#e83e21" d="M 472.265625 315.832031 L 475.59375 310.605469 L 670.539062 238.855469 L 672.675781 248.835938 L 472.265625 315.832031 " fill-opacity="1" fill-rule="nonzero"/></g><path fill="#f29e5f" d="M 229.417969 344.34375 L 426.960938 307.972656 C 426.960938 307.972656 338.945312 311.617188 337.316406 310.605469 C 335.683594 309.597656 272.921875 318.675781 271.675781 319.390625 C 270.425781 320.109375 229.417969 344.34375 229.417969 344.34375 " fill-opacity="1" fill-rule="nonzero"/><path fill="#f3e7db" d="M 461.554688 302.183594 C 461.554688 302.183594 332.476562 103.96875 320.171875 94.882812 C 307.871094 85.792969 150.074219 125.886719 124.929688 138.179688 L 228.269531 344.34375 C 262.84375 336.976562 298.910156 317.875 341.507812 313.695312 C 381.003906 309.820312 417.664062 308.484375 450.867188 308.707031 C 454.429688 306.53125 457.992188 304.355469 461.554688 302.183594 " fill-opacity="1" fill-rule="nonzero"/><path fill="#f29e5f" d="M 324.347656 99.386719 C 324.347656 99.386719 321.777344 87.019531 347.453125 70.28125 C 373.128906 53.542969 526.824219 28.785156 526.824219 28.785156 L 661.265625 199.300781 L 475.59375 302.292969 L 461.554688 302.183594 L 324.347656 99.386719 " fill-opacity="1" fill-rule="nonzero"/><path fill="#ffd9b4" d="M 324.347656 99.386719 C 324.347656 99.386719 328.195312 73.046875 361.71875 43.339844 C 395.238281 13.628906 475.59375 0.0859375 475.59375 0.0859375 L 610.625 178.820312 C 610.625 178.820312 508.164062 216.761719 475.59375 302.292969 L 461.554688 302.183594 L 324.347656 99.386719 " fill-opacity="1" fill-rule="nonzero"/><g clip-path="url(#bc2731e420)"><g clip-path="url(#7207362d71)"><g clip-path="url(#29554cc85f)"><path fill="url(#92520bf386)" d="M 283.152344 93.167969 L 283.152344 376.59375 L 495.351562 376.59375 L 495.351562 93.167969 Z M 283.152344 93.167969 " fill-rule="nonzero"/></g></g></g><path fill="#f7ab6d" d="M 348.449219 286.105469 C 338.796875 289.289062 266.113281 300.203125 250.207031 290.515625 C 242.535156 285.84375 235.894531 273.65625 232.777344 261.320312 C 229.421875 248.089844 230.121094 234.683594 237.921875 230.195312 C 237.921875 230.195312 266.261719 211.855469 287.128906 208.730469 C 307.40625 205.691406 344.523438 220.566406 355.84375 235.398438 C 356.179688 235.832031 356.480469 236.265625 356.769531 236.695312 C 366.824219 251.949219 358.105469 282.914062 348.449219 286.105469 " fill-opacity="1" fill-rule="nonzero"/><path fill="#f7ab6d" d="M 344.695312 206.492188 C 343.691406 205.25 343.269531 204.613281 343.707031 204.847656 C 344.007812 205.007812 344.34375 205.585938 344.695312 206.492188 " fill-opacity="1" fill-rule="nonzero"/><path fill="#ce6824" d="M 348.449219 286.105469 C 338.796875 289.289062 266.113281 300.203125 250.207031 290.515625 C 242.535156 285.84375 235.894531 273.65625 232.777344 261.320312 C 239.546875 272.386719 250.269531 286.597656 260.152344 285.613281 C 276.207031 284.023438 336.324219 286.246094 346.660156 274.84375 C 354.136719 266.597656 356.171875 246.546875 355.84375 235.398438 C 356.179688 235.832031 356.480469 236.265625 356.769531 236.695312 C 366.824219 251.949219 358.105469 282.914062 348.449219 286.105469 " fill-opacity="1" fill-rule="nonzero"/><path fill="#f7ab6d" d="M 290.492188 272.054688 C 237.667969 275.4375 219.628906 240.9375 219.628906 240.9375 C 215.800781 235.953125 214.644531 231.21875 215.492188 226.800781 C 219.484375 205.976562 268.078125 192.257812 292.339844 193.160156 C 315.222656 194.007812 336.78125 206.304688 346.289062 215.203125 C 349.003906 217.742188 350.730469 219.996094 351.234375 221.636719 C 353.5 229.03125 343.316406 268.671875 290.492188 272.054688 " fill-opacity="1" fill-rule="nonzero"/><g clip-path="url(#f917453946)"><g clip-path="url(#2f2009a971)"><g clip-path="url(#edef9c08e3)"><g clip-path="url(#1bf373e225)"><path fill="url(#4b597cfc54)" d="M 344.691406 184.921875 L 202.121094 218.175781 L 221.941406 303.035156 L 364.507812 269.78125 Z M 344.691406 184.921875 " fill-rule="nonzero"/></g></g></g></g><path fill="#ae451d" d="M 223.15625 241.535156 C 223.15625 241.535156 227.96875 232.375 230.5625 236.410156 C 233.15625 240.453125 225.324219 247.953125 223.15625 241.535156 " fill-opacity="1" fill-rule="nonzero"/><path fill="#ae451d" d="M 282.503906 232.222656 C 282.503906 232.222656 300.515625 235.390625 297.941406 240.289062 C 295.367188 245.1875 296.726562 240.894531 290.878906 240.421875 C 285.027344 239.945312 277.570312 236.714844 282.503906 232.222656 " fill-opacity="1" fill-rule="nonzero"/><path fill="#ae451d" d="M 323.109375 209.546875 C 329 201.621094 333.421875 205.628906 336.9375 208.039062 C 340.453125 210.449219 318.199219 216.164062 323.109375 209.546875 " fill-opacity="1" fill-rule="nonzero"/><path fill="#ae451d" d="M 285.382812 189.789062 C 289.402344 183.832031 292.871094 199.304688 289.640625 197.65625 C 286.414062 196.003906 283.082031 193.191406 285.382812 189.789062 " fill-opacity="1" fill-rule="nonzero"/><path fill="#f3e7db" d="M 389.25 152.113281 C 389.25 152.113281 399.875 110.382812 486.527344 75.636719 L 551.253906 156.664062 C 551.253906 156.664062 466.753906 205.808594 454.433594 251.242188 L 389.25 152.113281 " fill-opacity="1" fill-rule="nonzero"/><path fill="#ae451d" d="M 192.066406 156.5 L 193.460938 158.671875 C 193.800781 159.199219 193.84375 159.65625 193.589844 160.039062 C 193.332031 160.417969 192.878906 160.699219 192.226562 160.882812 C 191.585938 161.0625 190.972656 161.078125 190.386719 160.925781 C 189.804688 160.773438 189.34375 160.4375 189.007812 159.917969 L 184.355469 152.675781 C 183.605469 151.507812 183.949219 150.722656 185.398438 150.316406 C 186.136719 150.113281 186.757812 150.101562 187.261719 150.28125 C 187.761719 150.460938 188.203125 150.816406 188.578125 151.339844 C 188.765625 150.660156 189.054688 150.101562 189.4375 149.671875 C 189.824219 149.242188 190.484375 148.898438 191.417969 148.636719 C 192.355469 148.375 193.351562 148.257812 194.40625 148.285156 C 195.464844 148.3125 196.136719 148.550781 196.425781 149 C 196.628906 149.316406 196.613281 149.632812 196.371094 149.945312 C 196.128906 150.253906 195.785156 150.472656 195.351562 150.59375 C 195.191406 150.636719 194.757812 150.691406 194.054688 150.746094 C 193.355469 150.804688 192.765625 150.902344 192.285156 151.035156 C 191.632812 151.214844 191.164062 151.464844 190.878906 151.78125 C 190.597656 152.097656 190.46875 152.484375 190.492188 152.941406 C 190.515625 153.398438 190.660156 153.910156 190.921875 154.476562 C 191.183594 155.042969 191.566406 155.71875 192.066406 156.5 " fill-opacity="1" fill-rule="nonzero"/><path fill="#ae451d" d="M 203.644531 150.46875 L 211.722656 148.210938 C 211.039062 147.351562 210.203125 146.800781 209.207031 146.558594 C 208.210938 146.316406 207.128906 146.359375 205.964844 146.683594 C 204.855469 146.992188 204.089844 147.472656 203.664062 148.117188 C 203.238281 148.765625 203.234375 149.550781 203.644531 150.46875 Z M 213.304688 149.511719 L 204.59375 151.945312 C 204.980469 152.53125 205.523438 152.996094 206.210938 153.335938 C 206.894531 153.675781 207.640625 153.867188 208.445312 153.914062 C 209.25 153.957031 210.050781 153.867188 210.84375 153.648438 C 211.378906 153.496094 211.84375 153.324219 212.234375 153.128906 C 212.628906 152.933594 212.980469 152.699219 213.296875 152.429688 C 213.609375 152.15625 213.882812 151.886719 214.117188 151.609375 C 214.351562 151.335938 214.644531 150.96875 215.003906 150.507812 C 215.160156 150.328125 215.449219 150.179688 215.875 150.0625 C 216.332031 149.933594 216.746094 149.902344 217.125 149.972656 C 217.5 150.039062 217.777344 150.207031 217.945312 150.472656 C 218.097656 150.707031 218.117188 151.027344 218 151.429688 C 217.890625 151.832031 217.605469 152.265625 217.15625 152.730469 C 216.707031 153.199219 216.0625 153.664062 215.21875 154.121094 C 214.382812 154.582031 213.335938 154.984375 212.085938 155.335938 C 209.222656 156.136719 206.691406 156.28125 204.492188 155.769531 C 202.292969 155.261719 200.667969 154.191406 199.617188 152.558594 C 199.125 151.789062 198.863281 151.023438 198.832031 150.257812 C 198.800781 149.492188 199.011719 148.765625 199.457031 148.085938 C 199.90625 147.40625 200.597656 146.789062 201.535156 146.230469 C 202.472656 145.671875 203.613281 145.207031 204.949219 144.832031 C 206.691406 144.347656 208.320312 144.144531 209.839844 144.222656 C 211.363281 144.304688 212.652344 144.597656 213.707031 145.105469 C 214.765625 145.613281 215.519531 146.21875 215.972656 146.921875 C 216.390625 147.574219 216.34375 148.089844 215.824219 148.460938 C 215.308594 148.835938 214.46875 149.1875 213.304688 149.511719 " fill-opacity="1" fill-rule="nonzero"/><path fill="#ae451d" d="M 237.621094 144.402344 C 237.828125 144.726562 237.882812 145.117188 237.789062 145.578125 C 237.695312 146.039062 237.414062 146.53125 236.949219 147.054688 C 236.484375 147.578125 235.800781 148.085938 234.898438 148.578125 C 233.996094 149.070312 232.894531 149.5 231.601562 149.859375 C 228.847656 150.628906 226.398438 150.761719 224.253906 150.253906 C 222.105469 149.75 220.527344 148.710938 219.515625 147.132812 C 218.832031 146.066406 218.578125 145.027344 218.757812 144.007812 C 218.9375 142.992188 219.554688 142.074219 220.605469 141.253906 C 221.652344 140.429688 223.109375 139.757812 224.96875 139.238281 C 226.121094 138.917969 227.242188 138.71875 228.332031 138.648438 C 229.421875 138.578125 230.398438 138.601562 231.269531 138.726562 C 232.136719 138.851562 232.863281 139.039062 233.441406 139.292969 C 234.023438 139.546875 234.410156 139.828125 234.605469 140.132812 C 234.808594 140.441406 234.777344 140.761719 234.519531 141.089844 C 234.261719 141.417969 233.847656 141.660156 233.285156 141.816406 C 232.914062 141.917969 232.570312 141.949219 232.253906 141.90625 C 231.9375 141.863281 231.546875 141.761719 231.085938 141.597656 C 230.230469 141.265625 229.429688 141.066406 228.679688 140.988281 C 227.933594 140.914062 227.101562 141.003906 226.1875 141.257812 C 224.871094 141.625 224.003906 142.222656 223.585938 143.046875 C 223.167969 143.875 223.292969 144.804688 223.960938 145.847656 C 224.277344 146.335938 224.667969 146.757812 225.136719 147.109375 C 225.609375 147.460938 226.132812 147.726562 226.707031 147.90625 C 227.289062 148.085938 227.898438 148.175781 228.550781 148.167969 C 229.203125 148.160156 229.859375 148.066406 230.519531 147.878906 C 231.414062 147.628906 232.101562 147.296875 232.582031 146.878906 C 233.0625 146.457031 233.386719 145.933594 233.5625 145.300781 C 233.644531 144.933594 233.789062 144.621094 234 144.367188 C 234.210938 144.117188 234.542969 143.925781 235 143.796875 C 235.542969 143.644531 236.074219 143.640625 236.585938 143.78125 C 237.101562 143.921875 237.445312 144.128906 237.621094 144.402344 " fill-opacity="1" fill-rule="nonzero"/><path fill="#ae451d" d="M 242.179688 136.195312 L 247.011719 143.710938 C 247.347656 144.230469 247.386719 144.6875 247.136719 145.070312 C 246.882812 145.457031 246.429688 145.738281 245.773438 145.921875 C 245.121094 146.105469 244.503906 146.117188 243.921875 145.957031 C 243.339844 145.796875 242.882812 145.464844 242.558594 144.957031 L 237.773438 137.515625 C 237.445312 137 237.398438 136.558594 237.640625 136.183594 C 237.882812 135.808594 238.328125 135.53125 238.980469 135.347656 C 239.632812 135.164062 240.253906 135.144531 240.84375 135.289062 C 241.4375 135.429688 241.882812 135.730469 242.179688 136.195312 Z M 238.25 134.125 C 237.632812 134.296875 237.027344 134.335938 236.445312 134.234375 C 235.863281 134.136719 235.441406 133.882812 235.179688 133.476562 C 234.941406 133.109375 234.972656 132.742188 235.273438 132.378906 C 235.570312 132.015625 236.019531 131.746094 236.617188 131.582031 C 237.191406 131.421875 237.773438 131.382812 238.359375 131.476562 C 238.941406 131.566406 239.367188 131.820312 239.632812 132.230469 C 239.890625 132.632812 239.871094 133.003906 239.582031 133.351562 C 239.292969 133.699219 238.847656 133.957031 238.25 134.125 " fill-opacity="1" fill-rule="nonzero"/><path fill="#ae451d" d="M 262.097656 135.773438 C 261.660156 135.128906 261.105469 134.625 260.429688 134.257812 C 259.757812 133.890625 259.019531 133.671875 258.214844 133.59375 C 257.410156 133.519531 256.621094 133.582031 255.847656 133.789062 C 254.617188 134.117188 253.761719 134.660156 253.277344 135.417969 C 252.792969 136.175781 252.902344 137.070312 253.605469 138.101562 C 254.261719 139.074219 255.195312 139.71875 256.402344 140.035156 C 257.605469 140.347656 258.828125 140.339844 260.070312 140.007812 C 260.808594 139.808594 261.414062 139.507812 261.886719 139.101562 C 262.359375 138.699219 262.625 138.207031 262.6875 137.636719 C 262.746094 137.0625 262.550781 136.441406 262.097656 135.773438 Z M 250.949219 134.5625 L 251.148438 134.855469 C 251.601562 134.066406 252.191406 133.417969 252.914062 132.90625 C 253.636719 132.402344 254.570312 131.996094 255.714844 131.6875 C 257.085938 131.320312 258.480469 131.175781 259.898438 131.253906 C 261.316406 131.335938 262.613281 131.65625 263.789062 132.222656 C 264.964844 132.789062 265.898438 133.582031 266.589844 134.601562 C 267.101562 135.355469 267.375 136.097656 267.417969 136.828125 C 267.457031 137.5625 267.285156 138.230469 266.902344 138.835938 C 266.515625 139.445312 265.9375 139.988281 265.175781 140.464844 C 264.414062 140.9375 263.5 141.320312 262.445312 141.601562 C 261.171875 141.941406 260.003906 142.089844 258.949219 142.039062 C 257.894531 141.992188 256.789062 141.800781 255.636719 141.46875 L 258.128906 145.136719 C 258.855469 146.210938 258.511719 146.9375 257.082031 147.320312 C 256.246094 147.542969 255.59375 147.554688 255.132812 147.347656 C 254.671875 147.144531 254.261719 146.777344 253.902344 146.246094 L 246.746094 135.707031 C 246.429688 135.242188 246.378906 134.84375 246.59375 134.515625 C 246.808594 134.1875 247.234375 133.9375 247.878906 133.765625 C 248.511719 133.597656 249.105469 133.578125 249.664062 133.703125 C 250.21875 133.835938 250.648438 134.121094 250.949219 134.5625 " fill-opacity="1" fill-rule="nonzero"/><path fill="#ae451d" d="M 273.351562 131.667969 L 281.441406 129.585938 C 280.769531 128.832031 279.9375 128.351562 278.945312 128.140625 C 277.949219 127.9375 276.871094 127.984375 275.703125 128.28125 C 274.59375 128.570312 273.824219 129.003906 273.394531 129.582031 C 272.960938 130.160156 272.949219 130.855469 273.351562 131.667969 Z M 283.011719 130.726562 L 274.285156 132.972656 C 274.667969 133.488281 275.203125 133.898438 275.886719 134.195312 C 276.570312 134.488281 277.3125 134.65625 278.117188 134.6875 C 278.921875 134.71875 279.722656 134.632812 280.515625 134.429688 C 281.050781 134.289062 281.515625 134.132812 281.910156 133.953125 C 282.304688 133.777344 282.660156 133.566406 282.976562 133.324219 C 283.292969 133.078125 283.566406 132.832031 283.804688 132.585938 C 284.039062 132.339844 284.339844 132.011719 284.703125 131.597656 C 284.859375 131.4375 285.148438 131.304688 285.574219 131.195312 C 286.03125 131.078125 286.449219 131.046875 286.824219 131.101562 C 287.199219 131.160156 287.472656 131.304688 287.640625 131.539062 C 287.789062 131.746094 287.808594 132.03125 287.6875 132.390625 C 287.570312 132.75 287.285156 133.136719 286.832031 133.554688 C 286.378906 133.976562 285.730469 134.394531 284.886719 134.808594 C 284.039062 135.226562 282.992188 135.59375 281.738281 135.917969 C 278.871094 136.652344 276.34375 136.808594 274.148438 136.375 C 271.957031 135.941406 270.34375 135.003906 269.308594 133.5625 C 268.824219 132.886719 268.566406 132.203125 268.542969 131.523438 C 268.519531 130.84375 268.734375 130.199219 269.1875 129.589844 C 269.644531 128.980469 270.34375 128.425781 271.28125 127.921875 C 272.226562 127.414062 273.363281 126.992188 274.707031 126.648438 C 276.449219 126.199219 278.082031 126.003906 279.601562 126.0625 C 281.117188 126.117188 282.40625 126.367188 283.457031 126.808594 C 284.507812 127.25 285.257812 127.777344 285.699219 128.402344 C 286.117188 128.980469 286.0625 129.4375 285.542969 129.773438 C 285.023438 130.109375 284.179688 130.429688 283.011719 130.726562 " fill-opacity="1" fill-rule="nonzero"/><path fill="#f9c9a1" d="M 178.957031 185.398438 L 280.894531 156.070312 L 284.617188 163.4375 L 181.988281 193.097656 L 178.957031 185.398438 " fill-opacity="1" fill-rule="nonzero"/><path fill="#f9c9a1" d="M 188.050781 202.148438 L 255.09375 180.769531 L 256.945312 186.828125 L 190.269531 208.332031 L 188.050781 202.148438 " fill-opacity="1" fill-rule="nonzero"/><g clip-path="url(#fdcd719641)"><g clip-path="url(#fe8a107cfe)"><g clip-path="url(#fdb39ac4e3)"><path fill="#9fc6d1" d="M 474.054688 74.234375 L 409.761719 148.902344 L 484.328125 213.019531 L 548.621094 138.355469 Z M 474.054688 74.234375 " fill-opacity="1" fill-rule="nonzero"/></g></g></g><g clip-path="url(#780d295de3)"><g clip-path="url(#adf4a95ef0)"><g clip-path="url(#9c4e358d9d)"><g clip-path="url(#3560e2f0f3)"><path fill="url(#a4ccc79c71)" d="M 480.726562 154.636719 L 496.046875 111.53125 L 448.601562 94.695312 L 433.285156 137.800781 Z M 480.726562 154.636719 " fill-rule="nonzero"/></g></g></g></g><path fill="#ffffff" d="M 465.488281 156.058594 C 466.203125 156.414062 486.410156 170.671875 486.410156 170.671875 C 486.410156 170.671875 498.535156 170.550781 507.804688 154.632812 L 495.351562 130.753906 C 493.191406 134.59375 489.574219 139.972656 483.792969 145.132812 C 476.914062 151.269531 469.960938 154.433594 465.488281 156.058594 " fill-opacity="1" fill-rule="nonzero"/><path fill="#ff685f" d="M 452.53125 193.097656 C 452.53125 193.097656 440.171875 207.257812 445.519531 211.535156 C 450.867188 215.8125 502.996094 180.84375 506.023438 170.671875 C 509.050781 160.496094 475.117188 178.386719 473.929688 178.804688 C 472.738281 179.222656 452.53125 193.097656 452.53125 193.097656 " fill-opacity="1" fill-rule="nonzero"/><path fill="#ffbb6e" d="M 452.652344 201.082031 C 452.652344 201.082031 444.09375 195.734375 445.519531 183.976562 C 446.945312 172.214844 467.152344 160.890625 475.59375 161.027344 C 484.03125 161.167969 493.484375 168.292969 495.351562 173.285156 C 497.226562 178.273438 452.652344 201.082031 452.652344 201.082031 " fill-opacity="1" fill-rule="nonzero"/><path fill="#f9c9a1" d="M 475.59375 304.90625 L 662.355469 206.492188 L 662.890625 209.984375 Z M 475.59375 304.90625 " fill-opacity="1" fill-rule="nonzero"/><path fill="#f9c9a1" d="M 228.269531 350.40625 L 348.640625 328.175781 L 228.921875 354.816406 Z M 228.269531 350.40625 " fill-opacity="1" fill-rule="nonzero"/><path fill="#f9c9a1" d="M 594.460938 251.386719 L 663.953125 216.988281 L 664.78125 222.433594 Z M 594.460938 251.386719 " fill-opacity="1" fill-rule="nonzero"/><path fill="#f9c9a1" d="M 384.183594 129.84375 C 384.183594 129.84375 409.574219 90.65625 467.484375 68.714844 L 464.523438 64.589844 C 464.523438 64.589844 400.585938 88.070312 378.835938 124.617188 L 384.183594 129.84375 " fill-opacity="1" fill-rule="nonzero"/><path fill="#f9c9a1" d="M 373.128906 116.816406 C 373.128906 116.816406 390.960938 87.042969 442.664062 64.589844 L 437.671875 58.886719 C 437.671875 58.886719 381.328125 84.191406 367.78125 111.988281 L 373.128906 116.816406 " fill-opacity="1" fill-rule="nonzero"/><path fill="#721a03" d="M 455.328125 310.605469 C 455.328125 310.605469 452.292969 322.070312 459.78125 321.890625 C 467.269531 321.714844 473.335938 313.398438 468.164062 310.605469 C 462.992188 307.816406 455.859375 307.355469 455.328125 310.605469 " fill-opacity="1" fill-rule="nonzero"/></svg>